# xmcd
#
# Track frame offsets:
#	150
#	14200
#	31940
#	44590
#	55462
#	66035
#	77345
#	88792
#	102042
#	114532
#	127685
#	140802
#	153602
#	166897
#	179885
#	190090
#	204050
#	216015
#	229635
#	243527
#
# Disc length: 3404
#
# Revision: 5
# Processed by: cddbd v1.5.1PL0 Copyright (c) Steve Scherf et al.
# Submitted via: Grip 2.91
# Normalized: r3:TSWAP
#
DISCID=150d4a14
DTITLE=Various Artist - Blues Brother Soul Sister Classics (Disk 1)
DYEAR=1900
DGENRE=
TTITLE0=Eta James - I Just Want To Make Love To You
TTITLE1=Muddy Waters - Mannish Boy
TTITLE2=James Brown - I Got You (I Feel Good)
TTITLE3=Aretha Franklin - Respect
TTITLE4=Arthur Conley - Sweet Soul Music
TTITLE5=John Lee Hooker - Boom Boom
TTITLE6=Wilson Picket - In The Midnight Hour
TTITLE7=Diana Ross and The Supremes - Love Child
TTITLE8=Stevie Wonder - For Once In My Life
TTITLE9=Jackie Wilson - I Got The Sweetest Feeling
TTITLE10=Fontella Bass - Rescue Me
TTITLE11=Tommy Tucker - Hi Heel Sneakers
TTITLE12=The Temptations - My Girl
TTITLE13=Martha Reeves and The Vandellas - Jimmy Mack
TTITLE14=Edwin Starr - Stop Her On Sight (SOS)
TTITLE15=Eddie Floyd - Knock On Wood
TTITLE16=Sam and Dave - Soul Man
TTITLE17=Jr Walker and The Allstars - How Sweet It Is (To Be Loved By You)
TTITLE18=Howlin' Wolf - Smokestack Lightin'
TTITLE19=Nina Simone - I Put A Spell On You
EXTD=
EXTT0=
EXTT1=
EXTT2=
EXTT3=
EXTT4=
EXTT5=
EXTT6=
EXTT7=
EXTT8=
EXTT9=
EXTT10=
EXTT11=
EXTT12=
EXTT13=
EXTT14=
EXTT15=
EXTT16=
EXTT17=
EXTT18=
EXTT19=
PLAYORDER=
